<svg xmlns="http://www.w3.org/2000/svg" width="64" height="64" fill="none" viewBox="0 0 64 64"><path stroke="#3A3938" stroke-linecap="round" stroke-linejoin="round" stroke-width="4" d="M54.6654 25.334C58.6654 25.334 58.6654 26.6673 58.6654 29.334V34.6673C58.6654 37.334 58.6654 38.6673 54.6654 38.6673"/><path stroke="#3A3938" stroke-linecap="round" stroke-linejoin="round" stroke-width="4" d="M26.6654 21.334L21.6254 28.0007C20.5854 29.7873 21.8654 32.0007 23.9187 32.0007H30.052C32.1054 32.0007 33.3854 34.214 32.372 36.0007L26.6654 42.6673"/><path stroke="#3A3938" stroke-linecap="round" stroke-linejoin="round" stroke-width="4" d="M18.6674 50.6673C8.00077 50.6673 5.33411 48.0006 5.33411 37.334V26.6673C5.33411 16.0007 8.00077 13.334 18.6674 13.334"/><path stroke="#3A3938" stroke-linecap="round" stroke-linejoin="round" stroke-width="4" d="M34.6654 13.334C45.3321 13.334 47.9987 16.0007 47.9987 26.6673V37.334C47.9987 48.0006 45.3321 50.6673 34.6654 50.6673"/></svg>