<svg xmlns="http://www.w3.org/2000/svg" width="20" height="20" fill="none" viewBox="0 0 20 20"><path stroke="#3A3938" stroke-linecap="round" stroke-linejoin="round" stroke-width="1.5" d="M2.64062 6.20007L9.99895 10.4584L17.3073 6.22505"/><path stroke="#3A3938" stroke-linecap="round" stroke-linejoin="round" stroke-width="1.5" d="M9.99805 18.0084V10.4501"/><path stroke="#3A3938" stroke-linecap="round" stroke-linejoin="round" stroke-width="1.5" d="M8.27355 2.06675L3.82355 4.54177C2.81522 5.10011 1.99023 6.50009 1.99023 7.65009V12.3584C1.99023 13.5084 2.81522 14.9084 3.82355 15.4668L8.27355 17.9418C9.22355 18.4668 10.7819 18.4668 11.7319 17.9418L16.1819 15.4668C17.1902 14.9084 18.0152 13.5084 18.0152 12.3584V7.65009C18.0152 6.50009 17.1902 5.10011 16.1819 4.54177L11.7319 2.06675C10.7735 1.53341 9.22355 1.53341 8.27355 2.06675Z"/><path stroke="#3A3938" stroke-linecap="round" stroke-linejoin="round" stroke-width="1.5" d="M14.1661 11.0333V7.98333L6.25781 3.41663"/></svg>