<svg xmlns="http://www.w3.org/2000/svg" xmlns:xlink="http://www.w3.org/1999/xlink" x="0" y="0" enable-background="new 0 0 256 256" version="1.1" viewBox="0 0 256 256" xml:space="preserve"><metadata>Svg Vector Icons : http://www.onlinewebfonts.com/icon</metadata><g><g><g><path fill="#000" d="M112.9,74.7c-10.3,1.2-20.9,4.8-28.2,9.7c-1.8,1.2-6.9,5.8-11.5,10.2c-10.8,10.7-11.9,11.2-23.1,11.9c-11.1,0.6-16.8,2.9-22.3,9c-2.6,2.8-5.6,8.4-6.1,11.4c-0.3,1.4-0.8,1.9-2.7,2.9c-2.9,1.5-6.3,5.1-7.7,8.2c-1,2.1-1.1,3.5-1.3,12.5c-0.3,15.2-0.3,15.3,13.6,15.3h8.7l0.9,2.5c1.1,3,4.2,7.1,7,9.1C52,185.9,68,181,73.2,167.1l0.6-1.4h38.2c36,0,38.2,0,38.5,0.9c1.8,5.2,6.6,10.8,11.3,13c10,4.5,21.1,1.3,27.1-7.9c1.1-1.6,2.1-3.6,2.2-4.4l0.4-1.5h8.8c9.9,0,11.6-0.4,12.9-3.3c0.5-1,0.8-3,0.8-5c0-3.2,0.1-3.4,1.4-3.9c5.3-2,9.9-6,12.2-10.6c1.9-3.9,2.5-7.5,2.5-15.1v-5.9l1.4-0.6c4.9-1.9,9.6-5.8,11.9-9.9c2.7-4.8,3.7-14.4,2.1-17.9c-0.9-1.9-3.3-3.3-5.7-3.3H238v-5.6c0-6.5-0.7-8.5-3.3-9.7c-2.1-1-2.5-1-4.5,0c-2.6,1.2-3.3,3.2-3.3,9.7v5.6h-2.5h-2.5v-5.6c0-6.5-0.7-8.5-3.3-9.7c-2.1-1-2.5-1-4.5,0c-2.6,1.2-3.3,3.2-3.3,9.7v5.6h-1.6c-2.4,0-4.8,1.4-5.7,3.3c-1.6,3.2-0.8,11.8,1.4,16.6c2.2,4.8,7.8,9.7,13,11.5c0.8,0.3,0.9,1.1,0.9,7.2c0,7.8-0.6,9.9-3.5,12.4l-1.7,1.4l-0.7-2.7c-0.4-1.5-1.1-3.4-1.7-4.2c-1.4-2.2-4.9-5.4-6.8-6.2L203,129l-0.3-5.9c-1-19.7-11.6-37.2-27.1-44.7c-7.7-3.8-7.1-3.8-35.5-3.9C126.1,74.5,113.9,74.6,112.9,74.7z M168.4,86.9c7.3,2.9,14.3,9.3,18.1,16.6c3.9,7.3,5.3,13.5,5.7,23.9c0.4,9.9,0.5,10.1,6.5,11.8c3.6,1,4.2,2.2,4.2,9.4v6.2h-5.7h-5.6l-0.9-2.5c-3.1-8.7-13.7-14.8-23-13.2c-7.9,1.4-14.7,7.2-17.2,14.7c-0.3,0.9-2.5,0.9-38.5,0.9s-38.2-0.1-38.5-0.9c-1.8-5.2-6.6-10.7-11.5-13c-7.2-3.3-15.4-2.5-21.7,2.3c-2.9,2.1-6,6.1-7,9.1l-0.9,2.5h-5.6H21v-6.2c0-6,0.1-6.3,1.3-7.8c0.8-1,1.9-1.6,3.1-1.8c4.7-0.8,5.8-2,6.3-7c0.6-5.5,3.9-10.3,9-12.9c1.8-0.9,3.4-1.2,9.2-1.5c14.4-0.8,18.7-2.9,32.1-16c9.2-9.1,12-10.9,19.9-13.6c7.3-2.4,8.6-2.5,36.9-2.4l26.6,0.1L168.4,86.9z M235,102.6c0,1.9-1.8,5.1-3.7,6.8c-4.1,3.6-10.1,3.5-14.1-0.3c-1.8-1.7-3.4-4.7-3.4-6.4v-1.3h10.5H235V102.6z M57.6,150.6c8.3,4.3,8,15.8-0.5,19.3c-2.4,1-5.9,1-8.3,0c-8.4-3.6-8.5-15.9-0.1-19.5C51.2,149.4,55.3,149.5,57.6,150.6z M176.8,151.5c8.1,5.7,4.9,18.4-4.8,19.2c-3.3,0.3-5.9-0.5-8.2-2.6c-5.8-5.1-4.5-13.8,2.6-17.6c1.1-0.6,2.5-0.8,4.9-0.7C174.1,149.9,175,150.2,176.8,151.5z"/><path fill="#000" d="M117.3,96.8c-0.8,0.4-1.6,1.2-1.9,1.7c-0.4,0.8-3,12.4-3,13.4c0,0.1-6.6,0.2-14.6,0.2H83.2l-1.7,1.7c-1.2,1.2-1.7,2.2-1.7,3.3c0,2.2,1.2,4.3,2.8,5c1,0.5,13,0.6,48.4,0.6c46.5,0,47.2,0,48.4-1c1.9-1.5,2.6-4,1.7-6.2c-1.4-3.4-0.7-3.4-30.7-3.4c-23.7,0-26.9-0.1-26.9-0.8c0-0.5,0.5-2.9,1-5.5c1-4.3,1-4.9,0.3-6.5C123.6,96.3,120.2,95.2,117.3,96.8z"/></g></g></g></svg>