<svg xmlns="http://www.w3.org/2000/svg" xmlns:xlink="http://www.w3.org/1999/xlink"
  viewBox="0 0 500 500" width="500" height="500" preserveAspectRatio="xMidYMid meet"
  style="width: 100%; height: 100%; transform: translate3d(0px, 0px, 0px); content-visibility: visible;">
  <defs>
    <clipPath id="__lottie_element_2">
      <rect width="500" height="500" x="0" y="0" />
    </clipPath>
  </defs>
  <g clip-path="url(#__lottie_element_2)">
    <g transform="matrix(1,0,0,1,148.25,145.15899658203125)" opacity="1" style="display: block;">
      <g opacity="1" transform="matrix(1,0,0,1,57.930999755859375,96.16899871826172)">
        <path fill="rgb(0,212,145),0)" fill-opacity="1"
          d=" M-8.684000015258789,95.91899871826172 C-8.684000015258789,95.91899871826172 -2.5390000343322754,81.64700317382812 -2.5390000343322754,81.64700317382812 C-26.50200080871582,65.81400299072266 -42.345001220703125,38.64099884033203 -42.345001220703125,7.833000183105469 C-42.345001220703125,-40.91999816894531 -2.681999921798706,-80.58300018310547 46.07099914550781,-80.58300018310547 C46.35200119018555,-80.58300018310547 46.630001068115234,-80.57499694824219 46.9109992980957,-80.572998046875 C46.9109992980957,-80.572998046875 57.680999755859375,-95.26599884033203 57.680999755859375,-95.26599884033203 C53.86800003051758,-95.69200134277344 49.99599838256836,-95.91899871826172 46.07099914550781,-95.91899871826172 C-11.137999534606934,-95.91899871826172 -57.680999755859375,-49.375999450683594 -57.680999755859375,7.833000183105469 C-57.680999755859375,44.95600128173828 -38.077999114990234,77.58200073242188 -8.684000015258789,95.91899871826172z" />
      </g>
      <g opacity="1" transform="matrix(1,0,0,1,144.36399841308594,109.56300354003906)">
        <path fill="rgb(0,212,145),0)" fill-opacity="1"
          d=" M6.340000152587891,-98.19000244140625 C6.340000152587891,-98.19000244140625 0.2630000114440918,-84.0739974975586 0.2630000114440918,-84.0739974975586 C28.628999710083008,-69.33599853515625 48.051998138427734,-39.67499923706055 48.051998138427734,-5.560999870300293 C48.051998138427734,43.19200134277344 8.390000343322754,82.85399627685547 -40.36199951171875,82.85399627685547 C-44.76900100708008,82.85399627685547 -49.10100173950195,82.5250015258789 -53.33700180053711,81.9000015258789 C-53.33700180053711,81.9000015258789 -63.38800048828125,95.61100006103516 -63.38800048828125,95.61100006103516 C-55.979000091552734,97.2959976196289 -48.27299880981445,98.19000244140625 -40.36199951171875,98.19000244140625 C16.84600067138672,98.19000244140625 63.38800048828125,51.64799880981445 63.38800048828125,-5.560999870300293 C63.38800048828125,-45.97999954223633 40.15299987792969,-81.0719985961914 6.340000152587891,-98.19000244140625z" />
      </g>
    </g>
    <g transform="matrix(1,0,0,1,182.36599731445312,91.74099731445312)" opacity="1"
      style="display: block;">
      <g opacity="1" transform="matrix(1,0,0,1,66.88800048828125,152.75900268554688)">
        <path fill="rgb(0,212,145),0)" fill-opacity="1"
          d=" M66.63899993896484,-152.50900268554688 C66.63899993896484,-152.50900268554688 -56.05099868774414,14.878000259399414 -56.05099868774414,14.878000259399414 C-56.05099868774414,14.878000259399414 -7.34499979019165,14.878000259399414 -7.34499979019165,14.878000259399414 C-7.34499979019165,14.878000259399414 -66.5999984741211,152.50900268554688 -66.5999984741211,152.50900268554688 C-66.5999984741211,152.50900268554688 -66.63899993896484,152.50900268554688 -66.63899993896484,152.50900268554688 C-66.63899993896484,152.50900268554688 56.05099868774414,-14.878999710083008 56.05099868774414,-14.878999710083008 C56.05099868774414,-14.878999710083008 7.343999862670898,-14.878999710083008 7.343999862670898,-14.878999710083008 C7.343999862670898,-14.878999710083008 66.5989990234375,-152.50900268554688 66.5989990234375,-152.50900268554688 C66.5989990234375,-152.50900268554688 66.63899993896484,-152.50900268554688 66.63899993896484,-152.50900268554688z" />
      </g>
    </g>
    <g transform="matrix(1,0,0,1,116.75399780273438,113)" opacity="1" style="display: none;">
      <g opacity="1" transform="matrix(1,0,0,1,135.9709930419922,135.9709930419922)">
        <path stroke-linecap="butt" stroke-linejoin="miter" fill-opacity="0" stroke-miterlimit="10"
          stroke="rgb(0,212,145)" stroke-opacity="1" stroke-width="16" d="M0 0" />
      </g>
    </g>
  </g>
</svg>