<?xml version="1.0"?>
<svg width="500" height="500" xmlns="http://www.w3.org/2000/svg"
  xmlns:svg="http://www.w3.org/2000/svg" preserveAspectRatio="xMidYMid meet"
  transform="translate3d(0px, 0px, 0px)">
  <defs>
    <clipPath id="__lottie_element_2">
      <rect height="500" id="svg_1" width="500" x="0" y="0" />
    </clipPath>
  </defs>
  <g class="layer">
    <title>Layer 1</title>
    <g clip-path="url(#__lottie_element_2)" id="svg_2" transform="matrix(1 0 0 1 0 0)">
      <g display="block" id="svg_3" transform="matrix(1 0 0 1 148.25 145.159)">
        <g id="svg_4" transform="matrix(1,0,0,1,57.930999755859375,96.16899871826172)">
          <path
            d="m-8.68,95.92c0,0 6.14,-14.27 6.14,-14.27c-23.96,-15.84 -39.81,-43.01 -39.81,-73.82c0,-48.75 39.67,-88.41 88.42,-88.41c0.28,0 0.56,0.01 0.84,0.01c0,0 10.77,-14.7 10.77,-14.7c-3.81,-0.42 -7.68,-0.65 -11.61,-0.65c-57.21,0 -103.75,46.54 -103.75,103.75c0,37.13 19.6,69.75 49,88.09z"
            fill="#09d400" id="svg_5" />
        </g>
        <g id="svg_6" transform="matrix(1,0,0,1,144.36399841308594,109.56500354003906)">
          <path
            d="m6.34,-98.19c0,0 -6.08,14.12 -6.08,14.12c28.37,14.73 47.79,44.4 47.79,78.51c0,48.75 -39.66,88.41 -88.41,88.41c-4.41,0 -8.74,-0.32 -12.98,-0.95c0,0 -10.05,13.71 -10.05,13.71c7.41,1.69 15.12,2.58 23.03,2.58c57.21,0 103.75,-46.54 103.75,-103.75c0,-40.42 -23.24,-75.51 -57.05,-92.63z"
            fill="#09d400" id="svg_7" />
        </g>
      </g>
      <g display="block" id="svg_8" transform="matrix(1 0 0 1 182.366 91.741)">
        <g id="svg_9" transform="matrix(1 0 0 1 66.888 152.759)">
          <path
            d="m66.64,-152.51c0,0 -122.69,167.39 -122.69,167.39c0,0 48.71,0 48.71,0c0,0 -59.26,137.63 -59.26,137.63c0,0 -0.04,0 -0.04,0c0,0 122.69,-167.39 122.69,-167.39c0,0 -48.71,0 -48.71,0c0,0 59.26,-137.63 59.26,-137.63c0,0 0.04,0 0.04,0z"
            fill="#09d400" id="svg_10" transform="matrix(1 0 0 1 0 0)" />
        </g>
      </g>
      <g display="none" id="svg_11" transform="matrix(1,0,0,1,116.75399780273438,113)">
        <g id="svg_12" transform="matrix(1,0,0,1,135.9709930419922,135.9709930419922)">
          <path d="m0,0" fill="#09d400" fill-opacity="0" id="svg_13" stroke="rgb(0,212,145)"
            stroke-miterlimit="10" stroke-width="16" />
        </g>
      </g>
    </g>
  </g>
</svg>