<svg xmlns="http://www.w3.org/2000/svg" width="64" height="64" fill="none" viewBox="0 0 64 64"><path stroke="#3A3938" stroke-linecap="round" stroke-linejoin="round" stroke-width="4" d="M24.4266 28.9873C24.1599 28.9607 23.8399 28.9607 23.5466 28.9873C17.1999 28.774 12.1599 23.574 12.1599 17.174C12.1599 10.6407 17.4399 5.33398 23.9999 5.33398C30.5332 5.33398 35.8399 10.6407 35.8399 17.174C35.8132 23.574 30.7732 28.774 24.4266 28.9873Z"/><path stroke="#3A3938" stroke-linecap="round" stroke-linejoin="round" stroke-width="4" d="M43.7601 10.668C48.9335 10.668 53.0935 14.8546 53.0935 20.0013C53.0935 25.0413 49.0935 29.148 44.1068 29.3346C43.8935 29.308 43.6535 29.308 43.4135 29.3346"/><path stroke="#3A3938" stroke-linecap="round" stroke-linejoin="round" stroke-width="4" d="M11.0932 38.826C4.63984 43.146 4.63984 50.186 11.0932 54.4793C18.4265 59.386 30.4532 59.386 37.7865 54.4793C44.2398 50.1593 44.2398 43.1193 37.7865 38.826C30.4798 33.946 18.4532 33.946 11.0932 38.826Z"/><path stroke="#3A3938" stroke-linecap="round" stroke-linejoin="round" stroke-width="4" d="M48.9067 53.3301C50.8267 52.9301 52.6401 52.1567 54.1334 51.0101C58.2934 47.8901 58.2934 42.7434 54.1334 39.6234C52.6667 38.5034 50.8801 37.7567 48.9867 37.3301"/></svg>